<svg xmlns="http://www.w3.org/2000/svg" width="32.25" height="28.685" viewBox="0 0 32.25 28.685"><g transform="translate(-1068.75 -195)"><rect width="27" height="27" rx="2" transform="translate(1074 195)" fill="#fee2ba"/><path d="M380.06,241.281v.874a22.105,22.105,0,0,1-2.021,9.2,3.592,3.592,0,0,1-3.252,2.081,3.552,3.552,0,0,1-2.532-1.049L369.2,249.33a5.188,5.188,0,0,0-7.338,0l-3.056,3.055a3.556,3.556,0,0,1-2.532,1.049,3.592,3.592,0,0,1-3.252-2.081,22.106,22.106,0,0,1-2.021-9.2v-.873a22.1,22.1,0,0,1,2.021-9.2,3.581,3.581,0,0,1,5.784-1.032l3.056,3.056a5.191,5.191,0,0,0,7.338,0l3.056-3.056a3.58,3.58,0,0,1,5.783,1.032A22.09,22.09,0,0,1,380.06,241.281Z" transform="translate(718.5 -30.5)" fill="none" stroke="#1780df" stroke-miterlimit="10" stroke-width="1.5"/></g></svg>