<svg xmlns="http://www.w3.org/2000/svg" width="37" height="36" viewBox="0 0 37 36"><g transform="translate(-1072 -263)"><path d="M16.27,2.979a2,2,0,0,1,3.459,0L34.256,28a2,2,0,0,1-1.73,3H3.474a2,2,0,0,1-1.73-3Z" transform="translate(1109 263) rotate(90)" fill="#e8c9fd"/><g transform="translate(1072 266)"><path d="M763.645,317.955c.392-.236.763-.624,1.179-.681a4.464,4.464,0,0,0,3.7-4.092,4.636,4.636,0,0,0-2.834-4.551,2.3,2.3,0,0,1-.131.708c-.143.253-.373.625-.576.631-.24.007-.537-.283-.722-.514a2.292,2.292,0,0,1-.3-.763,56.871,56.871,0,0,1-2.684-16.563,7.866,7.866,0,0,1,.369-1.649c1.18.486.935,1.3.95,1.952A57.933,57.933,0,0,0,764.339,305c.144.584.316,1.162.512,1.88a6.013,6.013,0,0,1,4.631,8.1c-.941,2.535-3.362,3.994-5.607,3.375Z" transform="translate(-745.373 -290.479)" fill="#1780df"/><path d="M743.178,290.668c1.44.123,1.295.968,1.222,1.611-.423,3.768-.822,7.541-1.39,11.288a39.25,39.25,0,0,1-1.378,5.263,9.231,9.231,0,0,1-1.056,1.725l-.66-1.709a3.974,3.974,0,0,0-2.77,4.262,4.412,4.412,0,0,0,3.2,4.145c1.181.309,1.181.309,1.427,1.069-1.674,1.252-4.867-1.145-5.617-3.194-1.288-3.519.359-6.628,4.593-8.222C742.42,301.74,742.9,296.288,743.178,290.668Z" transform="translate(-735.724 -290.55)" fill="#1780df"/><path d="M758.655,330.481c-.324.189-.637.508-.983.548a6.172,6.172,0,0,0-3.7,1.976c-2.237,2.238-4.31,2.252-6.573.033a6.345,6.345,0,0,0-3.685-2.018c-.324-.041-.6-.469-.9-.72.395-.2.878-.644,1.169-.542a30.413,30.413,0,0,1,3.57,1.572,4.559,4.559,0,0,1,.957.9c1.5,1.447,2.833,1.476,4.289-.006a7.63,7.63,0,0,1,4.031-2.42C757.443,329.691,758.154,329.435,758.655,330.481Z" transform="translate(-738.401 -305.285)" fill="#1780df"/></g></g></svg>