<svg xmlns="http://www.w3.org/2000/svg" width="36.259" height="37.882" viewBox="0 0 36.259 37.882"><g transform="translate(-1064.87 -123.559)"><path d="M15.334.837a2,2,0,0,1,2.332,0L31.808,10.985a2,2,0,0,1,.734,2.25L27.15,29.625A2,2,0,0,1,25.25,31H7.75a2,2,0,0,1-1.9-1.375L.459,13.235a2,2,0,0,1,.734-2.25Z" transform="matrix(-0.174, 0.985, -0.985, -0.174, 1101.13, 128.942)" fill="#fdcdb0"/><g transform="translate(1068 132)"><path d="M733.871,396.728c-.566.627-1.057,1.231-1.615,1.766a4.711,4.711,0,0,1-1.362,1,1.962,1.962,0,0,1-2.957-1.949c-.04-2.811-.015-5.623-.016-8.435,0-1.615-.019-3.229.005-4.843a7.445,7.445,0,0,1,7.257-7.672,69.751,69.751,0,0,1,7.649,0,14.026,14.026,0,0,1,3.25,1.037c.995-1.036,2.571-1.129,4.21-1.1,2.5.042,5-.011,7.5.019,2.089.024,2.7.733,2.44,2.829a10.355,10.355,0,0,1-4.839,7.325,15.234,15.234,0,0,1-7.121,2.579,14.033,14.033,0,0,1-2.126-.1,10.1,10.1,0,0,1-5.926,5.075,2.016,2.016,0,0,0-.893.778C737.792,397.492,736.62,397.894,733.871,396.728Zm-4.57,1.439c1.175.539,1.745-.2,2.29-.888a10.278,10.278,0,0,1,6.423-3.792,12.806,12.806,0,0,0,3.755-1.445,6.02,6.02,0,0,0,3.437-5.832c-.083-1.816-.005-3.639-.021-5.459-.019-2.146-.769-2.907-2.912-2.929-2.079-.022-4.16-.018-6.24,0-4.2.027-6.8,2.631-6.82,6.836-.017,4.056-.005,8.112,0,12.168C729.215,397.276,729.272,397.732,729.3,398.166Zm29.781-20.317c-3.795,0-7.167-.061-10.534.031-1.289.035-2.035,1.039-2.072,2.5-.051,2.028-.039,4.059,0,6.087.022,1.311.417,1.666,1.75,1.535a13.661,13.661,0,0,0,5.589-1.833,10.02,10.02,0,0,0,4.76-5.366A19.638,19.638,0,0,0,759.081,377.85Zm-23.592,17.8.109.329c1.294.108,1.294.108,2.1-1.16Z" transform="translate(-727.914 -376.495)" fill="#1780df"/></g></g></svg>