<svg xmlns="http://www.w3.org/2000/svg" width="33" height="31.635" viewBox="0 0 33 31.635"><g transform="translate(-1071 -409)"><circle cx="14.5" cy="14.5" r="14.5" transform="translate(1075 409)" fill="#c5e1fb"/><g transform="translate(1071 409)"><path d="M745.295,453.161c.109.555.219,1.133.337,1.711A14.341,14.341,0,0,0,749,461.024a1.984,1.984,0,0,0,1.318.47c1.206.063,2.419.011,3.628.024.536.006,1.073.059,1.826.1v4.717h4.767a64.957,64.957,0,0,1,.067,7.426h-4.741c0,1.308,0,2.389,0,3.47a1.41,1.41,0,0,1-.782,1.481,3.437,3.437,0,0,0-1.1,1.15,11.037,11.037,0,0,1-20.111-4.7,10.227,10.227,0,0,1,1.468-6.8c.977-1.648,2.152-3.183,3.288-4.733s2.373-3.029,3.491-4.593a10,10,0,0,0,1.984-4.828C744.167,453.614,744.234,452.95,745.295,453.161Zm-.392,4.394c-2.309,3.052-4.635,6.1-6.926,9.178a22,22,0,0,0-1.493,2.373,8.97,8.97,0,0,0,.24,9.848,9.2,9.2,0,0,0,9.015,4.388,9.5,9.5,0,0,0,7.293-4.513l-4.538-.29c-.081-1.694-.151-3.146-.227-4.756H743.7v-7.378h4.745c-.105-1.534.149-2.983-.36-4.075A34.653,34.653,0,0,0,744.9,457.555Zm4.838,14.936V477.2h4.667c.086-1.634.164-3.128.252-4.795h4.513v-4.547l-4.717-.3v-4.547h-4.809v4.6l-4.615.258v4.618Z" transform="translate(-733.774 -453.121)" fill="#1780df"/><path d="M740.792,485.1c.134.6.236,1,.312,1.41a6.091,6.091,0,0,0,5.32,5.276c.982.181.982.181,1.119,1.081-2.451.794-5.8-1.051-7.126-3.921C739.54,487.043,739.579,485.876,740.792,485.1Z" transform="translate(-736.054 -465.196)" fill="#1780df"/></g></g></svg>