<svg xmlns="http://www.w3.org/2000/svg" width="28.634" height="31" viewBox="0 0 28.634 31"><g transform="translate(-771 -266)"><path d="M13.765,3.021a2,2,0,0,1,3.469,0L29.28,24a2,2,0,0,1-1.735,3H3.454A2,2,0,0,1,1.72,24Z" transform="translate(771 297) rotate(-90)" fill="#d1dde9"/><g transform="translate(771 268)"><path d="M497.471,269.877a.573.573,0,0,1-.4-.168l-3.355-3.356a.572.572,0,0,1,0-.809l14.506-14.506a2.945,2.945,0,1,1,4.165,4.165L497.875,269.71a.573.573,0,0,1-.4.168Zm-2.547-3.928,2.547,2.546,14.1-14.1a1.8,1.8,0,1,0-2.546-2.546Zm0,0" transform="translate(-484.61 -250.176)" fill="#1780df"/><path d="M522.716,388.831a.571.571,0,0,1-.4-.168l-3.355-3.356a.572.572,0,0,1,.809-.809l3.355,3.356a.572.572,0,0,1-.4.977Zm0,0" transform="translate(-507.448 -371.537)" fill="#1780df"/><path d="M541.3,370.246a.57.57,0,0,1-.4-.168l-3.356-3.356a.572.572,0,0,1,.809-.809l3.356,3.356a.572.572,0,0,1-.4.977Zm0,0" transform="translate(-524.259 -354.725)" fill="#1780df"/><path d="M559.885,351.664a.571.571,0,0,1-.405-.168l-3.355-3.355a.572.572,0,0,1,.809-.809l3.356,3.355a.572.572,0,0,1-.4.977Zm0,0" transform="translate(-541.072 -337.915)" fill="#1780df"/><path d="M403.8,421.045a5.282,5.282,0,0,1-3.76-1.557.571.571,0,0,1,0-.809l8.933-8.933a.572.572,0,0,1,.809,0l1.678,1.678a.572.572,0,0,1,0,.809l-1.525,1.525,1.273,1.273a.572.572,0,0,1,0,.809l-3.648,3.648a5.282,5.282,0,0,1-3.76,1.557Zm-2.519-1.99a4.18,4.18,0,0,0,5.47-.377l3.243-3.244-1.273-1.273a.573.573,0,0,1,0-.809l1.525-1.525-.869-.869Zm0,0" transform="translate(-399.871 -394.377)" fill="#1780df"/></g></g></svg>