<svg xmlns="http://www.w3.org/2000/svg" width="40.706" height="38.188" viewBox="0 0 40.706 38.188"><g transform="translate(-1068 -328.531)"><path d="M21.341,0a2,2,0,0,1,1.741,1.015l6.371,11.26a2,2,0,0,1,0,1.97L23.081,25.5a2,2,0,0,1-1.741,1.015H8.669A2,2,0,0,1,6.928,25.5L.557,14.245a2,2,0,0,1,0-1.97L6.928,1.015A2,2,0,0,1,8.669,0Z" transform="translate(1082.983 328.531) rotate(31)" fill="#b3e8ca"/><g transform="translate(1068 337)"><path d="M590.052,227.871c-.569,3.026-1.819,3.944-5.986,4.511-.387.563.712,1.531-.613,2.014-1.2-1.934-1.41-4.256-2.43-6.317h-4.054c.533,1.743,1.908,1.861,3.345,2.025.466,1.343,1.239,2.6,1.1,4.417-1.588-.74-1.246-2.241-2.038-3.229a4.144,4.144,0,0,1-3.719-3.093c-2.729-1.038-2.776-1.079-3.933-3.422-1.636,0-3.364.043-5.087-.019a6.953,6.953,0,0,1-2.393-.427,4.266,4.266,0,0,1-2.2-5.59c.263-.654.347-1.379.585-2.045.305-.852.456-1.956,1.075-2.462,1.669-1.367,2.084-3.934,4.409-4.586a5.516,5.516,0,0,0,2.319-1.343,4.64,4.64,0,0,1,3.378-1.021,5.326,5.326,0,0,0,1.922-.359,5.325,5.325,0,0,1,4.218.056,3.766,3.766,0,0,0,1.646.308,5.061,5.061,0,0,1,4.084,1.469,2.991,2.991,0,0,0,1.218.679,5.082,5.082,0,0,1,3.233,2.7,7.8,7.8,0,0,0,.947,1.238,1.314,1.314,0,0,0,.223.185c1.572,1.25,1.356,3.172,1.918,4.821.616,1.807.905,3.421-.072,5.123a2.093,2.093,0,0,0-.335.789A4.039,4.039,0,0,1,590.052,227.871Zm-6.908-7.17-.016.585a8.083,8.083,0,0,1-1.43.278c-1.98.033-3.961-.016-5.94.026a2.57,2.57,0,0,0-2.7,2.463,2.522,2.522,0,0,0,2.608,2.7q6.665.088,13.33,0a2.574,2.574,0,0,0,2.6-2.438,3.92,3.92,0,0,1,.455-1.334,3.653,3.653,0,0,0,.056-3.973,2.653,2.653,0,0,1-.307-1.347,3.946,3.946,0,0,0-1.665-3.5,3.21,3.21,0,0,1-.942-1.192,3.911,3.911,0,0,0-2.859-2.416,2.752,2.752,0,0,1-1.307-.76,3.664,3.664,0,0,0-3.515-1.254,2.764,2.764,0,0,1-2.053-.4,3.22,3.22,0,0,0-3.445.034,2.563,2.563,0,0,1-1.913.373,3.724,3.724,0,0,0-3.529,1.224,3.146,3.146,0,0,1-1.445.8,3.963,3.963,0,0,0-2.69,2.217,4.714,4.714,0,0,1-1.1,1.429,4.086,4.086,0,0,0-1.561,2.977,5.211,5.211,0,0,1-.484,1.765,3.1,3.1,0,0,0,2.539,4.585c1.968.131,3.951.027,5.907.027a5.851,5.851,0,0,0,.306-.58,3.858,3.858,0,0,1,4.066-2.616c1.883.031,3.767-.013,5.65.022A6.982,6.982,0,0,1,583.144,220.7Zm-.72,7.39.933,2.828c3.14.464,5.035-.561,5.238-2.828Z" transform="translate(-561.71 -206.516)" fill="#1780df"/><path d="M570.9,217.557l1.75.181c.5-1.848,1.51-3.216,3.6-3.372a3.491,3.491,0,0,1,3.518,1.826,3.563,3.563,0,0,1,.275,3.466c-.911.018-.841-.521-.9-1a6.4,6.4,0,0,0-.266-1.549,2.458,2.458,0,0,0-2.67-1.542,2.388,2.388,0,0,0-2.2,2.142,21.131,21.131,0,0,0-.01,3.321,1.957,1.957,0,0,0,1.5,1.756,9.394,9.394,0,0,1,1.212.631c-1.064,1.105-1.866.252-2.792.075-.769,1.382-1.747,2.622-3.566,2.614-.272,0-.544-.306-.816-.471l.066-.371c.435-.143.871-.28,1.3-.429a2.279,2.279,0,0,0,1.7-1.806,14.145,14.145,0,0,0,.068-3.016,1.408,1.408,0,0,0-1.227-1.26C570.9,218.643,570.513,218.437,570.9,217.557Z" transform="translate(-565.262 -210.074)" fill="#1780df"/><path d="M588.221,213.153c1.931-1.081,2.068-1.083,2.7.081-1.283.348-2.3.925-2.091,2.549.2,1.576,1.618,1.691,2.729,2.273-.819,1.317-1.688.473-2.6.356-.55,2.156-1.708,3.741-4.23,3.6a3.45,3.45,0,0,1-3.252-2.462,2.771,2.771,0,0,1,.236-2.962c.922.484.657,1.237.725,1.853a2.5,2.5,0,0,0,1.75,2.261,2.572,2.572,0,0,0,2.858-.862,1.288,1.288,0,0,0,.349-.619,25.528,25.528,0,0,0,.04-4.579c-.082-.581-1.088-1.033-1.727-1.592C585.957,212.076,586.317,212.066,588.221,213.153Z" transform="translate(-570.542 -209.155)" fill="#1780df"/><path d="M592.606,226.5c.493-.807,1.3-.488,1.95-.447a3.711,3.711,0,0,1,3.428,3.5,3.463,3.463,0,0,1-2.828,3.821,72.341,72.341,0,0,1-7.353.141c-.185,0-.369-.242-.53-.354.077-.9.711-.735,1.2-.741,1.592-.02,3.185-.008,4.777-.009.338,0,.678.017,1.013-.015a2.654,2.654,0,0,0,2.528-2.661,2.612,2.612,0,0,0-2.5-2.522C593.089,227.089,593.089,227.089,592.606,226.5Z" transform="translate(-573.316 -215.343)" fill="#1780df"/><path d="M609.312,224.8c1.807,1.876,2.119,3,.975,3.916a8.747,8.747,0,0,0-1.219-2.331,10.028,10.028,0,0,0-2.489-1.341c.262-.268.431-.593.672-.659a1.941,1.941,0,0,0,1.542-1.515c.057-.235.436-.393.667-.587.153.308.469.642.425.919A8.326,8.326,0,0,1,609.312,224.8Z" transform="translate(-582.082 -213.674)" fill="#1780df"/><path d="M602.182,220.408c-.078-1.92-1.3-2.889-3.283-3.113l-.021-.343c.263-.212.51-.581.793-.611a3.756,3.756,0,0,1,3.568,3.473C603.2,220.384,602.984,220.749,602.182,220.408Z" transform="translate(-578.585 -210.972)" fill="#1780df"/><path d="M606.893,238.867c-.068-1.007,1-.681,1.355-1.139a15.621,15.621,0,0,0,1-1.659c.872.286.986.522.673,1.373A2.18,2.18,0,0,1,606.893,238.867Z" transform="translate(-582.223 -219.934)" fill="#1780df"/><path d="M571.08,226.841a8.906,8.906,0,0,0-1.8,1.069,6.368,6.368,0,0,0-.875,1.561c-.875-.62-.926-1.2-.275-2.136A1.9,1.9,0,0,1,571.08,226.841Z" transform="translate(-564.424 -215.521)" fill="#1780df"/></g></g></svg>