<svg xmlns="http://www.w3.org/2000/svg" width="32" height="33" viewBox="0 0 32 33"><g transform="translate(-772 -128)"><rect width="26" height="27" rx="2" transform="translate(778 134)" fill="#b3e8ca"/><g transform="translate(772 128)"><path d="M651.937,550.1c1.506-.575,9.524-.474,12.092.158.368-2.328.606-4.683,1.137-6.969.546-2.347,1.35-4.636,2.106-6.93.184-.56.376-1.372,1.579-.929a16.2,16.2,0,0,1-.373,1.954,40.1,40.1,0,0,0-1.954,11.342c-.008.432,0,.865,0,1.183,2.108-.057,4.111-.15,6.114-.154a55.181,55.181,0,0,1,5.848.087c.19,1.313-.558,1.257-1.2,1.261-2.2.015-4.4,0-6.6.012a16.831,16.831,0,0,0-2.306.064c-1.43.2-1.854.824-1.6,2.263.274,1.57.731,3.121.848,4.7a11.8,11.8,0,0,1-.42,3.553,1.968,1.968,0,0,1-1.925,1.549,2.141,2.141,0,0,1-2.1-1.571,8.7,8.7,0,0,1-.184-5.038c.189-.971.473-1.923.68-2.891.364-1.7-.193-2.51-1.959-2.595-1.921-.093-3.85-.031-5.776-.038-1.045,0-2.091,0-3.136-.019C652.154,551.084,651.719,550.865,651.937,550.1Zm13.492,3.677-.346.009a26.755,26.755,0,0,0-.621,2.683,29.025,29.025,0,0,0-.26,3.739,1.591,1.591,0,0,0,1.239,1.705C667.358,559.152,665.714,556.462,665.43,553.778Z" transform="translate(-651.88 -535.304)" fill="#1780df"/><path d="M662.2,565.147c-2.476.6-4.615,1.1-6.51-.458.218-.982.91-.942,1.524-.667a3.992,3.992,0,0,0,3.339.012,1.958,1.958,0,0,1,2.383,2.992,6.305,6.305,0,0,0-.261,6.73,4.38,4.38,0,0,0,4.114,2.568,4.489,4.489,0,0,0,3.883-2.673,6.2,6.2,0,0,0,.037-6.008c-.148-.294-.334-.569-.495-.857a1.83,1.83,0,0,1,.087-2.163,1.789,1.789,0,0,1,2.06-.692,5.118,5.118,0,0,0,3.982.039c.321-.139.859.226,1.577.444-2.2,1.84-4.328,1.329-6.464.793l-.2.354c.233.509.451,1.026.7,1.526a7.792,7.792,0,0,1,.512,5.775c-.838,2.987-3.449,5.02-6.123,4.829a6.442,6.442,0,0,1-5.7-5.563,7.872,7.872,0,0,1,.8-5.281C661.685,566.448,661.832,566,662.2,565.147Z" transform="translate(-653.32 -546.075)" fill="#1780df"/></g></g></svg>