<svg xmlns="http://www.w3.org/2000/svg" width="40.88" height="38.135" viewBox="0 0 40.88 38.135">
  <g id="Group_44492" data-name="Group 44492" transform="translate(-1065.25 -125.559)">
    <path id="Polygon_17" data-name="Polygon 17" d="M15.334.837a2,2,0,0,1,2.332,0L31.808,10.985a2,2,0,0,1,.734,2.25L27.15,29.625A2,2,0,0,1,25.25,31H7.75a2,2,0,0,1-1.9-1.375L.459,13.235a2,2,0,0,1,.734-2.25Z" transform="matrix(-0.174, 0.985, -0.985, -0.174, 1106.13, 130.942)" fill="#fdcdb0"/>
    <g id="Group_40442" data-name="Group 40442" transform="translate(1066 131)">
      <path id="Path_25012" data-name="Path 25012" d="M117.743,326.4a14.333,14.333,0,0,0-5.677-1.244,11.314,11.314,0,0,0-7.716,3.157A8.447,8.447,0,0,0,102,331.855c-.466,1.581-.411,3.231-1.091,4.778-.717,1.63-3.184,6.508-3.184,6.508l3.706.395s-.065,3.918,0,4.767c.263,3.419,4.893,2.658,7.237,2.658,0,0-1.369.667-1.3,1.71s0,4.417,0,4.417" transform="translate(-97.729 -325.158)" fill="none" stroke="#1780df" stroke-linecap="round" stroke-linejoin="round" stroke-width="1.5"/>
      <path id="Path_25013" data-name="Path 25013" d="M89.874,385.579c0-2.24-.062-4.482.065-6.72a16.351,16.351,0,0,1,1.311-5.067l.805-1.765" transform="translate(-68.956 -353.649)" fill="none" stroke="#1780df" stroke-linecap="round" stroke-linejoin="round" stroke-width="1.5"/>
      <path id="Path_25014" data-name="Path 25014" d="M90.142,336.066H73.734V347.8c2.663,0,5.347-.1,8-.08,2,.015,3.833,1.482,5.17,2.819l.522-2.738h2.717Z" transform="translate(-60.72 -331.789)" fill="none" stroke="#1780df" stroke-linecap="round" stroke-linejoin="round" stroke-width="1.5"/>
      <path id="Path_25015" data-name="Path 25015" d="M92.146,343.149H89.778v11.3h3.064l.271,3.606c-.037-.491,1.131-1.389,1.435-1.634a8.709,8.709,0,0,1,5-1.968c1.369-.065,2.755,0,4.126,0" transform="translate(-80.545 -336.094)" fill="none" stroke="#1780df" stroke-linecap="round" stroke-linejoin="round" stroke-width="1.5"/>
      <ellipse id="Ellipse_2760" data-name="Ellipse 2760" cx="0.523" cy="0.523" rx="0.523" ry="0.523" transform="translate(18.817 9.703)" fill="#1780df"/>
      <ellipse id="Ellipse_2761" data-name="Ellipse 2761" cx="0.523" cy="0.523" rx="0.523" ry="0.523" transform="translate(20.716 9.703)" fill="#1780df"/>
      <ellipse id="Ellipse_2762" data-name="Ellipse 2762" cx="0.523" cy="0.523" rx="0.523" ry="0.523" transform="translate(22.614 9.703)" fill="#1780df"/>
    </g>
  </g>
</svg>
