<svg xmlns="http://www.w3.org/2000/svg" width="45.38" height="49.332" viewBox="0 0 45.38 49.332"><g transform="translate(-762.162 -320.29)"><path d="M403.45,674.181l5.205,10.547,11.64,1.691-8.423,8.21,1.988,11.593-10.411-5.473-10.411,5.473,1.988-11.593-8.423-8.21,11.64-1.691Z" transform="translate(794.508 -456.712) rotate(31)" fill="#c5e1fb"/><g transform="translate(772 333)"><g transform="translate(0)"><path d="M28.461,17.233v1.929l3.293,4.9a.889.889,0,0,1-.739,1.385H28.461v3.385a4.973,4.973,0,0,1-4.975,4.975H19.146v7.581h-9.3V31.769h0a3.837,3.837,0,0,1-3.837-3.837v-10.7a11.228,11.228,0,1,1,22.455,0Z" transform="translate(-5.381 -4.874)" fill="none"/><path d="M4.4,36.622h9.3a.617.617,0,0,0,.615-.615V29.051h3.724a5.6,5.6,0,0,0,5.591-5.591v-2.77h1.939a1.521,1.521,0,0,0,1.334-.8,1.48,1.48,0,0,0-.082-1.549l-3.19-4.75V11.859a11.848,11.848,0,1,0-23.7-.01v10.7a4.458,4.458,0,0,0,3.837,4.411v9.048A.633.633,0,0,0,4.4,36.622Zm8.689-1.231H5.02V26.384a.617.617,0,0,0-.615-.615,3.22,3.22,0,0,1-3.221-3.221v-10.7a10.612,10.612,0,1,1,21.224,0v1.929a.627.627,0,0,0,.1.339l3.293,4.9a.264.264,0,0,1,.01.287.278.278,0,0,1-.246.144H23.013a.617.617,0,0,0-.615.615V23.45a4.369,4.369,0,0,1-4.36,4.36H13.7a.617.617,0,0,0-.615.615v6.965Zm9.93-21.614Z" transform="translate(0.057)" fill="#1780df"/></g><path d="M11.552,5.766A6.415,6.415,0,0,1,3.171,9.242a5.132,5.132,0,0,1-2.78-6.7A4.106,4.106,0,0,1,5.755.313,3.285,3.285,0,0,1,7.534,4.6,2.628,2.628,0,0,1,4.1,6.027,2.1,2.1,0,0,1,2.963,3.281a1.682,1.682,0,0,1,2.2-.911,1.345,1.345,0,0,1,.729,1.758,1.076,1.076,0,0,1-1.406.583.861.861,0,0,1-.466-1.125" transform="translate(15.172 17.142) rotate(-158)" fill="none" stroke="#1780df" stroke-linecap="round" stroke-miterlimit="10" stroke-width="1.5"/></g></g></svg>