<svg xmlns="http://www.w3.org/2000/svg" width="32" height="32.717" viewBox="0 0 32 32.717"><g transform="translate(-773 -195)"><circle cx="14.5" cy="14.5" r="14.5" transform="translate(776 197)" fill="#fcbaba"/><g transform="translate(773 195)"><path d="M818.01,328.56h1.926L821,327.322l1.411.725,1.4-2.177c1.557,3.119,2.407,6.094,3.687,8.945a3.611,3.611,0,0,1,2.968,2.485,3.217,3.217,0,0,1-2.322,4.141,5.871,5.871,0,0,0-2.469,1.031,3.174,3.174,0,0,1-3.842-.15,3.093,3.093,0,0,1-1.051-3.685,3.085,3.085,0,0,0-.065-2.748c-.759-1.831-1.468-3.682-2.177-5.533C818.35,329.853,818.233,329.32,818.01,328.56Zm3.493.682-1.61,1.1,2.813,7.258c-1.108,2.028-1.122,2.974-.117,3.776,1.076.859,2.061.588,3.633-1.013a4.278,4.278,0,0,1,.431-.018c1.6.077,2.544-.53,2.739-1.755.182-1.146-.51-2.037-2-2.373a1.438,1.438,0,0,1-1.13-1.059c-.7-1.849-1.433-3.685-2.161-5.523a4.582,4.582,0,0,0-.289-.525l-.92.841Z" transform="translate(-810.493 -310.335)" fill="#1780df"/><path d="M827.268,315.258l-1.506-.158-.312-1.575c-.729-.283-1.509.651-2.277-.323.217-.407.432-.9.724-1.342,1.091-1.653,2.2-3.292,3.317-4.928a1.884,1.884,0,0,0,.311-1.691,3.234,3.234,0,0,1,1.548-3.91c1.457-.785,2.886-.457,4.247.893a3.322,3.322,0,0,0,1.252.731,3.462,3.462,0,0,1,2.564,3.374,3.292,3.292,0,0,1-2.823,3.126,2.212,2.212,0,0,0-1.545,1.079c-1.061,1.672-2.161,3.318-3.26,4.966-.271.407-.6.779-1.059,1.381Zm5.48-6.806c2.26-.262,3.2-.856,3.154-2.137-.046-1.3-.225-1.921-2.964-2.391-.09-.138-.2-.305-.309-.473-.787-1.216-1.749-1.608-2.787-1.134-1.165.532-1.558,1.483-1.011,2.933a1.809,1.809,0,0,1-.272,1.831c-.982,1.471-1.943,2.957-2.958,4.506l1.183.472.179,1.56,1.836.663Z" transform="translate(-812.442 -300.911)" fill="#1780df"/><path d="M812.939,323.913c-.611.216-.959.472-1.249.42-1.7-.307-3.389-.683-5.08-1.044-.521-.111-.843-.363-.589-.957A15.04,15.04,0,0,1,812.939,323.913Z" transform="translate(-805.933 -308.983)" fill="#1780df"/><path d="M814.671,316.815c.815.866,1.651,1.714,2.425,2.615a.806.806,0,0,1-.042.791.781.781,0,0,1-.775.027,32.232,32.232,0,0,1-2.169-2.508c-.105-.134.093-.5.15-.766Z" transform="translate(-809.009 -306.916)" fill="#1780df"/><path d="M815.088,327.458c-.087.256-.1.651-.275.747a10.2,10.2,0,0,1-3.554,1.534c0-.393-.1-.739.015-.831a8.622,8.622,0,0,1,3.538-1.759Z" transform="translate(-807.929 -310.818)" fill="#1780df"/><path d="M822.646,331.205l1.392.706.92-.841a4.6,4.6,0,0,1,.289.525c.728,1.838,1.463,3.674,2.161,5.523a1.438,1.438,0,0,0,1.13,1.059c1.487.335,2.178,1.226,2,2.373-.194,1.225-1.143,1.831-2.739,1.755a4.279,4.279,0,0,0-.431.018c-1.572,1.6-2.557,1.872-3.633,1.013-1-.8-.991-1.748.117-3.776l-2.813-7.258Z" transform="translate(-811.635 -312.299)" fill="none"/><path d="M834.222,309.186l-3.95,5.831-1.835-.663-.179-1.56-1.183-.472c1.015-1.55,1.976-3.035,2.958-4.506a1.809,1.809,0,0,0,.272-1.831c-.547-1.45-.154-2.4,1.011-2.933,1.038-.474,2-.082,2.787,1.134.108.168.219.335.309.473,2.739.47,2.918,1.086,2.964,2.391C837.42,308.329,836.482,308.924,834.222,309.186Z" transform="translate(-813.916 -301.645)" fill="none"/></g></g></svg>